<?xml version="1.0" encoding="UTF-8" standalone="no"?>
<!-- Created with Inkscape (http://www.inkscape.org/) -->

<svg
   width="2048"
   height="1024"
   viewBox="0 0 541.86666 270.93333"
   version="1.1"
   id="svg5"
   inkscape:version="1.2.2 (732a01da63, 2022-12-09)"
   sodipodi:docname="LogoDB.svg"
   xml:space="preserve"
   inkscape:export-filename="..\..\..\..\CODE\smrnv.ch\images\LogoDB.png"
   inkscape:export-xdpi="96"
   inkscape:export-ydpi="96"
   xmlns:inkscape="http://www.inkscape.org/namespaces/inkscape"
   xmlns:sodipodi="http://sodipodi.sourceforge.net/DTD/sodipodi-0.dtd"
   xmlns="http://www.w3.org/2000/svg"
   xmlns:svg="http://www.w3.org/2000/svg"><sodipodi:namedview
     id="namedview7"
     pagecolor="#ffffff"
     bordercolor="#999999"
     borderopacity="1"
     inkscape:showpageshadow="0"
     inkscape:pageopacity="0"
     inkscape:pagecheckerboard="0"
     inkscape:deskcolor="#d1d1d1"
     inkscape:document-units="mm"
     showgrid="false"
     inkscape:zoom="0.5946522"
     inkscape:cx="1009.834"
     inkscape:cy="792.05963"
     inkscape:window-width="2560"
     inkscape:window-height="1494"
     inkscape:window-x="-11"
     inkscape:window-y="-11"
     inkscape:window-maximized="1"
     inkscape:current-layer="svg5" /><defs
     id="defs2" /><path
     id="path1128"
     style="font-weight:normal;font-size:56.5592px;line-height:1;font-family:'Disco Sunday';-inkscape-font-specification:'Disco Sunday, Normal';fill:#000000;stroke-width:0;stroke-miterlimit:10;paint-order:stroke markers fill;stroke:none;stroke-dasharray:none"
     d="m 416.97713,150.65954 c -9.57987,0.29541 -17.70372,3.58674 -24.37164,9.87485 -6.66791,6.28809 -10.00197,14.09569 -10.00197,23.42234 0,9.87526 3.29185,18.02051 9.87537,24.4352 6.58352,6.4147 14.74957,9.62164 24.49824,9.62164 9.49544,0 17.59797,-3.41796 24.30808,-10.25468 6.75231,-6.83671 10.12858,-14.77095 10.12858,-23.80216 0,-10.04408 -3.22829,-18.0627 -9.6852,-24.05538 -6.41469,-5.99267 -14.66521,-9.07311 -24.75146,-9.24181 z m 0,3.86126 c 2.61651,0 4.51569,1.81476 5.69733,5.44411 1.22388,3.58717 2.00437,7.63868 2.34197,12.1543 0.3797,4.47342 0.57,8.41915 0.57,11.83752 0,3.75597 -0.19018,7.9341 -0.57,12.53412 -0.3798,4.60001 -1.18166,8.71456 -2.40553,12.34395 -1.18164,3.58716 -3.05946,5.38055 -5.63377,5.38055 -2.61652,0 -4.5365,-1.87778 -5.76037,-5.63377 -1.18165,-3.75595 -1.94132,-7.93408 -2.27893,-12.53411 -0.33771,-4.64222 -0.50643,-8.67237 -0.50643,-12.09074 0,-3.46057 0.21102,-7.42767 0.63304,-11.90108 0.42201,-4.47342 1.24473,-8.50357 2.46858,-12.09074 1.22387,-3.62935 3.03859,-5.44411 5.44411,-5.44411 z m -71.08933,62.54343 c -2.2367,0 -4.89544,-0.44313 -7.97619,-1.32936 -3.03856,-0.92845 -6.4147,-1.39267 -10.12847,-1.39267 -2.99635,0 -6.14042,0.46422 -9.43217,1.39267 -3.24955,0.88623 -6.05597,1.32936 -8.41929,1.32936 l 0.0633,-0.12653 c 0.46422,-0.88623 1.41376,-4.0303 2.84863,-9.43215 1.43486,-5.44407 2.1523,-12.49181 2.1523,-21.14323 0,-6.5413 -0.44313,-12.06977 -1.32936,-16.5854 -0.88623,-4.51559 -1.75137,-7.93396 -2.59543,-10.25508 l -1.32936,-3.48166 h 2.08899 c 5.19086,0 9.79088,-0.27431 13.80008,-0.82294 4.47342,-0.63304 9.53766,-1.79358 15.19273,-3.48166 v 10.12847 c 1.73028,-3.79819 4.24131,-6.64681 7.53306,-8.5459 3.29175,-1.9413 7.15325,-2.91195 11.58445,-2.91195 5.65507,0 10.25509,1.85688 13.80005,5.57067 3.58717,3.67156 5.38077,8.6092 5.38077,14.81291 0,5.78166 -1.70918,11.05692 -5.12755,15.82576 -3.41837,4.76883 -7.38535,9.11564 -11.90097,13.04042 -3.79819,3.29175 -5.69727,5.71838 -5.69727,7.27984 0,0.42202 0.12653,0.84408 0.37982,1.26607 0.46421,0.63304 1.16053,0.94955 2.08899,0.94955 1.64588,0 3.37617,-1.26607 5.19085,-3.79819 1.30827,-1.89908 2.63763,-3.31284 3.9881,-4.24129 1.39266,-0.92845 2.97524,-1.39267 4.74772,-1.39267 1.85689,0 3.50277,0.73854 4.93764,2.21561 1.56146,1.64586 2.34221,3.88259 2.34221,6.71012 0,2.74314 -1.03394,5.04315 -3.10184,6.90003 -2.02571,1.81468 -5.02206,2.72203 -8.98904,2.72203 -4.30461,0 -8.16608,-1.49818 -11.58445,-4.49451 -1.9835,-1.81469 -3.48166,-3.9881 -4.49451,-6.52022 -1.30827,-3.08075 -1.96239,-6.60463 -1.96239,-10.57161 0,-3.33395 0.54861,-7.08994 1.64586,-11.26794 1.13947,-4.68442 1.7092,-9.34775 1.7092,-13.98997 0,-3.54497 -0.46422,-6.2459 -1.39267,-8.10279 -0.88625,-1.85688 -2.21561,-2.78533 -3.98809,-2.78533 -1.89911,0 -3.5872,1.37158 -5.06426,4.11469 -1.43487,2.74314 -2.1101,6.03491 -2.02568,9.87527 v 11.83767 c 0,9.57987 0.84403,17.09183 2.53212,22.53588 z m -68.49389,0 c -2.3211,0 -5.02204,-0.44313 -8.10279,-1.32936 -3.03856,-0.92845 -6.37251,-1.39267 -10.00187,-1.39267 -2.95416,0 -6.07711,0.46422 -9.36886,1.39267 -3.29175,0.88623 -6.1404,1.32936 -8.54592,1.32936 0.54864,-1.05505 1.51929,-4.26241 2.91196,-9.62206 1.43487,-5.40185 2.1523,-12.4285 2.1523,-21.07992 0,-11.05692 -0.57167,-20.07209 -2.84115,-27.03172 l -2.92296,-8.96353 c 5.86082,1.52983 10.7475,3.15761 14.74171,3.44783 4.53809,0.32973 11.25871,0.18245 16.85003,-1.05943 v 9.10858 c 4.81104,-7.59635 10.97255,-11.39454 18.4845,-11.39454 5.23305,0 9.60094,1.9413 13.10371,5.82389 3.08075,3.50277 4.62113,8.18718 4.62113,14.05327 0,4.13578 -1.22387,7.57524 -3.67159,10.31838 -3.03855,3.24957 -6.56241,4.87435 -10.57159,4.87435 -3.67157,0 -6.52022,-0.99174 -8.54592,-2.97525 -2.02568,-2.0257 -3.03853,-4.43122 -3.03853,-7.21655 0,-1.85689 0.0843,-3.37617 0.2532,-4.55782 0.21111,-1.22385 0.31652,-2.65872 0.31652,-4.3046 0,-1.47707 -0.33761,-2.72203 -1.01285,-3.73488 -0.63303,-1.01285 -1.58257,-1.51927 -2.84864,-1.51927 -1.98351,0 -3.65048,1.43487 -5.00095,4.30461 -1.35044,2.86973 -2.04679,6.87891 -2.08899,12.02757 v 8.79911 c 0,9.57988 0.86514,17.09183 2.59543,22.53588 z m -39.3745,0 c -1.85688,0 -4.59999,-0.44313 -8.22938,-1.32936 -3.62937,-0.92845 -6.92112,-1.39267 -9.87527,-1.39267 -2.95416,0 -6.07711,0.46422 -9.36886,1.39267 -3.29175,0.88623 -6.1404,1.32936 -8.54589,1.32936 l 0.0633,-0.12653 c 0.46424,-0.88623 1.41378,-4.0303 2.84865,-9.43215 1.43486,-5.44407 2.1523,-12.49181 2.1523,-21.14323 0,-6.58353 -0.44313,-12.13309 -1.32936,-16.64868 -0.84405,-4.51562 -1.7092,-7.93399 -2.59543,-10.25509 l -1.32935,-3.41837 c 6.07843,-1.75864 8.1815,-3.82466 14.71351,-4.79786 9.79975,-1.46006 11.06584,2.00079 18.9004,0.93632 -1.68809,9.70647 -2.53214,19.39183 -2.53214,29.05609 v 4.55782 c 0,9.95969 0.86514,17.66155 2.59542,23.1056 z m -50.83231,1.26607 c -3.54499,0 -6.54132,-0.80184 -8.98904,-2.40552 -2.40552,-1.60369 -4.24132,-3.39726 -5.50736,-5.38077 -1.18165,-1.77248 -2.08899,-3.75596 -2.72203,-5.95048 -0.59083,-2.1945 -0.88625,-4.57891 -0.88625,-7.15325 0,-3.29175 0.56972,-7.27984 1.70919,-11.96426 1.05503,-4.47342 1.58256,-8.84133 1.58256,-13.10374 0,-2.78533 -0.21111,-4.97983 -0.63301,-6.5835 -1.05506,-3.84038 -2.48992,-5.76058 -4.30463,-5.76058 -1.09725,0 -2.08899,0.67524 -2.97522,2.02568 -0.88625,1.30827 -1.49818,2.95416 -1.83579,4.93766 -1.51929,8.69363 -3.96701,15.50923 -7.34316,20.44687 -3.33397,4.89544 -6.94223,8.98904 -10.82481,12.28079 -1.73029,1.51929 -3.16515,3.01744 -4.3046,4.49453 -1.13948,1.43487 -1.51929,2.65872 -1.13948,3.67157 0.33762,0.92845 1.03397,1.39269 2.08902,1.39269 1.68808,0 3.46057,-1.26607 5.31745,-3.79821 1.05505,-1.39267 2.25781,-2.67985 3.60828,-3.8615 1.39267,-1.22384 3.10184,-1.83577 5.12754,-1.83577 1.85689,0 3.52386,0.75963 5.00093,2.2789 1.51928,1.47707 2.27892,3.65048 2.27892,6.52021 0,2.82754 -1.03396,5.16977 -3.10187,7.02665 -2.02568,1.81471 -5.02203,2.72203 -8.98902,2.72203 -3.54496,0 -6.58352,-0.82292 -9.11563,-2.46881 -2.53212,-1.68809 -4.36792,-3.50279 -5.50737,-5.44407 -1.18164,-1.98351 -2.0679,-4.11467 -2.65873,-6.39362 -0.54862,-2.3211 -0.82292,-4.53668 -0.82292,-6.64678 0,-3.29175 0.54861,-7.23765 1.64586,-11.83769 1.13947,-4.60002 1.7092,-9.13671 1.7092,-13.61015 0,-3.58717 -0.48533,-6.35142 -1.45598,-8.29272 -0.92845,-1.98346 -2.27892,-2.9752 -4.05141,-2.9752 -1.85688,0 -3.48165,1.54038 -4.87432,4.62111 -1.39267,3.03855 -2.08899,7.08991 -2.08899,12.15417 v 13.73675 c 0.54863,8.18718 1.51926,14.5386 2.91193,19.05422 l 2.08899,8.10279 c -2.1101,-0.84406 -4.72662,-1.70918 -7.84957,-2.59543 -3.12295,-0.92845 -6.54132,-1.39267 -10.25509,-1.39267 -3.62939,0 -7.02665,0.46422 -10.191798,1.39267 -3.122953,0.88623 -5.697269,1.32936 -7.722972,1.32936 l 0.06326,-0.12653 c 0.464238,-0.88623 1.413779,-4.0303 2.848646,-9.43215 1.477067,-5.44407 2.215611,-12.49181 2.215611,-21.14323 0,-6.5413 -0.443126,-12.06977 -1.32938,-16.5854 -0.886231,-4.51559 -1.772484,-7.93396 -2.658715,-10.25508 l -1.32938,-3.48166 h 2.089013 c 5.233054,0 9.833075,-0.27431 13.800065,-0.82294 4.47342,-0.63304 9.53765,-1.79358 15.19272,-3.48166 v 10.44499 c 1.81471,-4.0936 4.32571,-7.02665 7.53306,-8.79913 3.24958,-1.81468 7.32207,-2.72202 12.21748,-2.72202 7.89177,0 13.63126,3.16515 17.21843,9.49545 2.61652,-3.62937 5.46516,-6.11928 8.54592,-7.46975 3.12295,-1.35047 6.62572,-2.0257 10.5083,-2.0257 5.73947,0 10.38169,1.85688 13.92666,5.57067 3.58717,3.71378 5.38076,8.4826 5.38076,14.30649 0,6.16148 -1.60366,11.52114 -4.81101,16.07896 -3.20735,4.55782 -7.27987,8.92573 -12.21751,13.10373 -1.73028,1.51927 -3.12295,2.89082 -4.178,4.11469 -1.01285,1.22387 -1.51927,2.32112 -1.51927,3.29175 0,0.59084 0.21111,1.09728 0.63304,1.51929 0.42201,0.42202 0.99174,0.63304 1.70917,0.63304 1.60369,0 3.37617,-1.26607 5.31745,-3.79819 1.05506,-1.39267 2.27893,-2.67985 3.67159,-3.8615 1.39267,-1.22385 3.08073,-1.83577 5.06424,-1.83577 1.85688,0 3.50277,0.73852 4.93763,2.21559 1.56147,1.64589 2.34221,3.9037 2.34221,6.77343 0,2.74314 -1.03394,5.02203 -3.10184,6.83674 -2.0257,1.81468 -5.02203,2.72203 -8.98902,2.72203 z M 142.351,56.021387 c -2.86974,0 -5.12737,0.696098 -6.77323,2.088761 -1.60369,1.350466 -2.40554,2.975549 -2.40554,4.874638 0,1.730281 0.50644,3.270444 1.51929,4.620907 1.05505,1.30826 2.23674,2.447752 3.545,3.418396 1.68809,1.266058 3.24958,3.080802 4.68447,5.444112 1.47706,2.321107 2.21537,5.04296 2.21537,8.16591 V 129.8329 L 106.20489,57.287459 c -1.39267,0 -3.14385,0.316267 -5.25395,0.949296 -4.642212,1.308262 -8.925593,1.962671 -12.850374,1.962671 -4.389018,0 -8.799523,-0.570001 -13.230717,-1.709456 -2.405517,-0.801838 -5.000755,-1.202511 -7.786088,-1.202511 l 1.645894,2.278931 c 1.097249,1.51927 2.19454,3.756048 3.291789,6.710185 1.139471,2.954139 1.708939,6.562262 1.708939,10.824662 v 42.286303 c 0,2.5942 -0.186396,5.08986 -0.552938,7.48999 -5.182133,-1.19193 -11.590063,-1.79266 -19.243269,-1.79266 -17.513821,0 -30.132098,2.04662 -37.855054,6.1402 -7.6807645,4.09358 -11.5212607,9.34814 -11.5212607,15.76286 0,5.31744 2.2998231,9.95929 6.8998377,13.92628 4.600014,3.96698 10.635077,7.68087 18.104838,11.14144 9.579845,4.38901 16.458992,8.88391 20.636983,13.48393 4.177992,4.55781 6.266801,8.31338 6.266801,11.26753 0,1.35045 -0.211029,2.40553 -0.633036,3.16518 -0.422023,0.71743 -1.11811,1.07642 -2.088762,1.07642 -2.194497,0 -4.283824,-2.49 -6.267318,-7.46983 -2.532122,-6.2459 -5.844818,-10.82469 -9.938411,-13.73663 -4.093593,-2.95413 -8.756802,-4.43125 -13.989844,-4.43125 -6.372504,0 -11.838091,1.89915 -16.3958982,5.69733 C 2.3842252,185.28631 0,190.66699 0,197.25049 c 0,5.86609 1.5401563,10.59285 4.6209066,14.18002 4.2201982,4.6844 9.2001944,7.02644 14.9396564,7.02644 4.642222,0 8.419153,-1.30831 11.331091,-3.92483 2.95413,-2.61651 4.009212,-6.2882 3.165182,-11.01483 -0.801839,-4.76883 -1.202511,-7.99712 -1.202511,-9.68519 0,-1.98349 0.337625,-3.48196 1.012858,-4.49482 0.717426,-1.05505 1.645897,-1.58233 2.78536,-1.58233 1.350452,0 2.552999,0.67525 3.608049,2.02571 1.097256,1.35047 2.131485,3.69249 3.102136,7.02645 2.321103,8.6514 5.591606,14.45409 9.811804,17.40824 4.262405,2.91192 9.495608,4.36821 15.6993,4.36821 6.541301,0 12.006371,-2.15238 16.395382,-6.45697 4.431202,-4.3046 6.646623,-9.95984 6.646623,-16.96538 0,-7.08992 -2.067956,-13.20889 -6.203756,-18.35753 -6.077072,-7.17435 -14.243153,-12.9562 -24.498246,-17.3452 -7.132122,-3.24956 -12.618045,-6.26683 -16.458427,-9.05216 -3.840382,-2.82752 -5.760889,-6.24599 -5.760889,-10.25518 0,-3.54497 1.540688,-6.26735 4.621423,-8.16643 3.080751,-1.94135 7.173952,-2.95371 12.280388,-3.03806 4.431217,0 8.102894,0.71694 11.014831,2.15181 2.1101,1.05505 3.165182,2.32114 3.165182,3.79822 0,0.94239 -0.739146,2.20173 -2.212268,3.77548 -0.399689,0.3557 -0.731401,0.6929 -1.010275,1.01544 -0.244249,0.23425 -0.493232,0.47057 -0.765328,0.71675 -2.658727,2.40552 -3.988387,5.48636 -3.988387,9.24233 0,3.03854 1.350513,5.48634 4.051433,7.34322 2.700934,1.81469 6.014147,2.7218 9.938928,2.7218 4.684428,0 8.355603,-1.37135 11.014315,-4.11448 2.700934,-2.74312 4.051432,-6.11938 4.051432,-10.12858 0,-4.29071 -1.225141,-7.91629 -3.67161,-10.87892 -0.0051,-0.007 -0.0088,-0.0137 -0.01395,-0.0207 C 81.274035,126.2054 77.465556,122.17951 77.465556,95.043294 V 74.885868 l 39.184684,73.051352 c 1.85688,0 4.34637,-0.50643 7.46932,-1.51928 3.12294,-1.05505 5.6765,-1.58234 7.65999,-1.58234 2.1945,0 5.19093,0.52729 8.98912,1.58234 3.84038,1.01285 6.56222,1.51928 8.16591,1.51928 V 85.963745 c 0,-4.642213 0.37983,-8.208137 1.13946,-10.698055 0.80183,-2.532116 1.20251,-5.190927 1.20251,-7.976257 -0.1266,-7.427554 -3.10166,-11.183646 -8.92555,-11.268046 z m 335.26326,25.574666 c -4.05139,0 -7.42765,1.160323 -10.12858,3.481441 -2.70091,2.321095 -4.26246,5.465003 -4.68447,9.431983 -0.12653,1.266045 -0.18965,2.511302 -0.18965,3.735172 0,6.752311 1.8778,13.525691 5.63376,20.320211 5.73948,10.84591 15.9313,18.39978 30.5754,22.66218 8.06056,2.48992 15.08717,4.87468 21.07985,7.15357 5.99268,2.32111 8.98911,5.29618 8.98911,8.92555 0,2.65873 -1.90232,4.97762 -5.15007,5.84409 -0.87055,0.23224 -1.98756,-0.4567 -4.07211,-2.37143 -0.0393,-0.0361 -0.0789,-0.0658 -0.11833,-0.0997 -0.64999,-0.5935 -1.33934,-1.15563 -2.06706,-1.67638 -2.36332,-1.51929 -5.04297,-2.27893 -8.0393,-2.27893 -5.27525,0 -9.36897,2.04711 -12.28091,6.14071 -1.68808,2.48992 -2.53214,5.19094 -2.53214,8.10286 0,3.71379 1.07593,6.56224 3.22822,8.54573 2.1945,1.94128 4.7267,2.91197 7.59644,2.91197 2.19452,0 4.26248,-0.50644 6.20375,-1.51929 1.98351,-1.01285 3.18707,-1.51928 4.24212,-1.51928 0.75964,0 1.35049,0.25318 1.7725,0.75964 1.87061,2.25027 -2.74751,10.91013 -7.11894,15.9613 -4.24014,4.89942 -10.1686,8.11547 -15.78147,10.943 l -10.82052,-37.02048 c -1.05505,-4.05138 -1.58285,-7.53291 -1.58285,-10.44484 0,-0.71743 0.0423,-1.41407 0.1266,-2.08928 0.37982,-3.29174 0.6966,-5.21173 0.94982,-5.76037 l 0.063,-0.12661 c -4.51561,1.85688 -10.57154,3.12298 -18.16788,3.79822 -5.06426,0.54861 -10.9727,0.82321 -17.72502,0.82321 l 1.39268,1.0759 c 2.61652,2.1523 5.17005,6.33042 7.66,12.53412 2.02568,5.27524 5.02214,15.00286 8.98911,29.18271 l 5.38056,19.49701 c 9.83307,0 18.46338,-1.87778 25.89092,-5.63377 7.37414,-4.14878 13.04461,-8.41132 17.85162,-15.12931 5.52848,-7.72624 7.61118,-13.93467 9.04648,-21.53305 3.21447,-1.58047 6.5212,-3.75882 9.11624,-6.44199 2.84287,-2.93936 4.15462,-6.90504 4.23902,-10.82983 0,-7.93398 -5.54949,-13.67362 -16.6486,-17.21858 4.76884,-18.10466 8.86254,-31.75664 12.28091,-40.95668 2.48991,-6.203697 5.04296,-10.381816 7.65948,-12.534114 l 1.39268,-1.07642 c -16.41658,0 -28.38096,-1.54018 -35.8929,-4.620907 0.29542,0.590813 0.6122,2.553011 0.94981,5.886979 0.0844,0.717433 0.12609,1.498439 0.12609,2.342493 0,2.827531 -0.50592,6.224642 -1.51877,10.191629 l -10.25519,34.62682 c -9.53765,-3.92478 -16.62781,-9.22104 -21.27002,-15.88895 -1.60369,-2.44772 -2.76401,-4.62143 -3.48144,-6.52053 -1.13947,-3.08073 -1.70946,-5.29616 -1.70946,-6.64662 0,-1.60369 0.69661,-2.40554 2.08928,-2.40554 0.71743,0 1.70895,0.29542 2.97502,0.88625 1.26604,0.59081 2.40554,1.11861 3.41839,1.58285 0.97065,0.42201 2.25759,0.63303 3.86126,0.63303 1.64587,0 3.2918,-0.40119 4.93769,-1.20302 4.05137,-2.0679 6.11932,-5.59162 6.20375,-10.57145 0,-2.658736 -0.80186,-5.233129 -2.40553,-7.723043 -3.12296,-4.093601 -7.21617,-6.140194 -12.28039,-6.140194 z m -57.23628,-3e-6 c -7.72295,0 -13.25172,1.434798 -16.58569,4.304555 -3.33398,2.827535 -5.00106,6.18232 -5.00106,10.064906 0,3.038554 1.01379,5.612989 3.03949,7.723089 2.0679,2.0679 4.66292,3.10227 7.78587,3.10227 3.20735,0 5.67655,-0.67626 7.40683,-2.02673 1.73029,-1.39267 2.59529,-3.33319 2.59529,-5.823111 0,-1.477066 -0.48631,-2.891303 -1.45696,-4.241772 -0.92846,-1.350468 -1.9193,-2.363067 -2.97435,-3.038302 -1.81469,-1.223847 -2.72203,-2.363503 -2.72203,-3.418554 0,-0.928429 0.52748,-1.624064 1.58253,-2.088302 1.09725,-0.464215 2.61677,-0.696506 4.55805,-0.696506 4.72659,0 8.54596,2.3845 11.45789,7.153339 2.3211,4.009183 3.48132,9.368608 3.48132,16.078728 0,1.01285 -0.0424,2.04722 -0.12676,3.10227 -4.6,-2.86975 -9.70657,-4.30574 -15.31944,-4.30574 -7.59637,0 -14.07482,1.94171 -19.43447,5.8243 -5.31745,3.84039 -7.97541,8.9046 -7.97541,15.1927 0,4.85324 1.32956,8.98952 3.9883,12.40787 2.70094,3.41837 6.1404,4.54758 10.31838,5.81365 4.178,1.26604 8.96265,1.79176 13.1032,1.8988 5.21114,0.13455 12.16453,-0.32746 16.58569,-2.34182 4.64222,-1.60368 8.43979,-1.19281 11.39395,-1.19281 3.29175,0 6.54127,0.48514 9.74862,1.45577 3.24955,0.97068 6.07805,1.47757 8.48357,1.51975 -3.29175,-8.65138 -4.93828,-19.51903 -4.93828,-32.60163 0,-9.24224 -2.34216,-16.6063 -7.0266,-22.092549 -3.24955,-3.798187 -7.76455,-6.710166 -13.54622,-8.735869 -5.73947,-2.025703 -11.88041,-3.038302 -18.42171,-3.038302 z m 5.63361,31.14467 c 1.51929,0 2.9335,0.52748 4.24177,1.58253 1.35047,1.01285 2.2784,2.23716 2.78481,3.67202 0.33771,1.51929 0.50699,3.07996 0.50699,4.68362 0,5.48625 0.46453,10.23471 1.39299,14.24389 l 0.31627,1.20228 c -1.54349,2.86942 -5.35607,4.40106 -9.44184,4.45263 -3.24927,0.041 -5.88623,-1.43303 -7.2789,-4.47156 -1.39267,-3.08076 -1.95446,-4.7497 -1.95446,-9.60294 0,-4.76884 0.92911,-8.58818 2.786,-11.45789 1.85688,-2.86974 4.07206,-4.30458 6.64637,-4.30458 z m -36.58876,35.25996 c -2.2367,0 -5.10646,-0.44313 -8.60923,-1.32936 -3.50277,-0.92845 -8.18162,-1.8561 -11.20921,-2.11384 -10.99623,-0.93604 -15.73981,-0.4426 -21.55806,1.50506 1.90016,-3.15184 4.60316,-5.95599 5.46386,-8.80113 1.84528,-6.32407 4.57762,-16.05901 4.57762,-32.56001 0,-21.10101 -1.35047,-35.681797 -4.05138,-43.742384 l -1.39267,-3.98809 h 2.2789 c 5.23305,0 9.83307,-0.253212 13.80006,-0.759636 4.43122,-0.63303 9.51656,-1.814688 15.25603,-3.54497 l -0.37981,52.98465 c 0.25321,18.86429 1.83579,32.07351 4.74772,39.62768 l 0.82295,2.1523 z M 317.57442,81.59605 c -9.57985,0.295418 -17.70373,3.587282 -24.37165,9.875364 -6.66792,6.288104 -10.00196,14.095196 -10.00196,23.421836 0,9.87523 3.29184,18.02051 9.87536,24.43519 6.58348,6.4147 14.74958,9.62217 24.49825,9.62217 9.49541,0 17.59744,-3.41901 24.30756,-10.25571 6.75228,-6.83672 10.12909,-14.77048 10.12909,-23.80165 0,-10.04409 -3.22936,-18.062735 -9.68623,-24.055375 -6.41468,-5.992687 -14.66417,-9.07289 -24.75042,-9.241825 z m 0.28318,7.377836 c 10.84567,0.09054 21.4122,6.847469 25.10233,18.681034 4.58666,14.70838 -4.86543,30.68329 -19.87526,33.59124 -25.6305,4.96555 -42.40326,-25.58007 -24.28844,-44.232452 5.25022,-5.405977 11.9296,-7.965257 18.5446,-8.039295 0.17237,-0.0019 0.34463,-0.0019 0.51677,-5.27e-4 z m -0.10796,4.360462 c -6.85595,-0.06877 -13.81535,3.010406 -18.42834,9.785462 -8.81119,12.94104 -1.09086,31.21055 14.36916,34.00411 14.93201,2.6981 28.25623,-10.2103 25.82529,-25.01965 -1.9441,-11.84342 -11.74579,-18.669295 -21.76611,-18.769922 z m -9.69967,9.807152 c 1.07676,-0.0284 1.48071,1.34233 0.51574,3.52433 -2.21497,5.00868 -2.26317,12.53796 -0.11254,17.54622 h -5.3e-4 c 0.92797,2.1611 -0.48709,4.45295 -1.9394,3.1409 -6.39634,-5.77874 -6.68378,-16.61011 -0.60876,-22.9309 0.8331,-0.86679 1.58159,-1.26565 2.14561,-1.28055 z m -26.11569,44.85918 c -7.34315,1.39267 -14.58082,1.64588 -21.71296,0.75963 -7.08994,-0.88623 -12.91382,-3.43946 -17.47164,-7.65966 -3.24955,-2.95413 -5.57065,-6.4147 -6.96332,-10.38169 -1.35047,-3.96698 -2.42663,-8.86242 -3.22846,-14.68631 -0.50642,-3.58716 -1.13945,-5.38076 -1.89908,-5.38076 -0.25322,0 -0.54864,0.16893 -0.88626,0.50644 0,7.21653 0.16894,12.80831 0.50644,16.7753 0.63303,6.49912 1.92019,12.28079 3.86147,17.34502 0.21111,0.50642 0.40091,1.03394 0.56973,1.58258 l 0.50644,1.13945 c -2.02571,0 -4.81104,-0.44313 -8.35601,-1.32936 -3.54497,-0.92845 -6.90003,-1.39267 -10.06518,-1.39267 -3.46057,0 -6.79454,0.46422 -10.00189,1.39267 -3.16516,0.88623 -5.97158,1.32936 -8.4193,1.32936 l 0.31651,-0.56973 c 1.05505,-2.0679 2.0257,-5.02203 2.91195,-8.86242 1.51927,-6.07708 2.2789,-15.97347 2.2789,-29.68912 0,-24.012951 -1.83579,-41.315776 -5.50736,-51.908484 h 2.2789 c 5.27525,0 9.89638,-0.253212 13.86337,-0.759636 4.43122,-0.63303 9.51656,-1.814688 15.25603,-3.54497 v 53.42775 l 2.84865,-2.4055 15.95236,-13.800076 c 1.68808,-1.561465 3.39725,-2.975244 5.12754,-4.241291 3.75599,-2.658737 7.70188,-3.988095 11.83769,-3.988095 5.19083,0 9.26332,1.519266 12.21748,4.55782 2.78533,2.954155 4.178,6.203706 4.178,9.748674 -0.0422,4.431198 -1.70915,8.334898 -5.00095,11.711048 -2.86973,2.82753 -6.07708,4.24131 -9.62205,4.24131 -3.20735,0 -5.9294,-0.90734 -8.1661,-2.72203 -2.19452,-1.85688 -3.29177,-4.28351 -3.29177,-7.27984 0,-2.067902 0.23211,-3.840409 0.69635,-5.317476 0.46423,-1.519265 0.69634,-2.700914 0.69634,-3.544968 0,-0.928453 -0.23211,-1.666975 -0.69634,-2.215588 -0.46424,-0.590836 -1.07617,-0.886254 -1.8358,-0.886254 -0.80183,0 -1.47707,0.422016 -2.0257,1.26607 -0.50642,0.844032 -0.75963,2.257788 -0.75963,4.241291 0,9.031245 2.86973,18.252385 8.60922,27.663425 5.95049,9.87527 13.08262,18.16797 21.39643,24.87809 z m -86.72517,0 c -1.85688,0 -4.60002,-0.44313 -8.22939,-1.32936 -3.62939,-0.92845 -6.92114,-1.39267 -9.87529,-1.39267 -2.95413,0 -6.07709,0.46422 -9.36884,1.39267 -3.29175,0.88623 -6.14039,1.32936 -8.54591,1.32936 l 0.0633,-0.12653 c 0.46424,-0.88623 1.41378,-4.0303 2.84865,-9.43215 1.43487,-5.44407 2.1523,-12.49181 2.1523,-21.14321 0,-6.58352 -0.44313,-12.13308 -1.32936,-16.6487 -0.84405,-4.515622 -1.70919,-7.933992 -2.59543,-10.25509 l -1.32938,-3.418371 7.65969,0.06327 c 4.4312,0 8.27158,-0.358728 11.52113,-1.076162 3.29175,-0.717433 6.20371,-2.278898 8.73583,-4.684417 2.44772,-2.363313 3.67159,-5.676174 3.67159,-9.938578 0,-3.122951 -0.86515,-6.077092 -2.59543,-8.862426 -0.71743,-0.928443 -1.35047,-1.392665 -1.89911,-1.392665 -0.54863,0 -0.82294,0.295413 -0.82294,0.886242 0,0.506426 0.27431,1.688081 0.82294,3.544971 0.59084,1.814685 0.88626,3.77708 0.88626,5.887181 0,2.869737 -1.11836,5.401858 -3.35506,7.596365 -2.2367,2.194511 -5.46516,3.291761 -9.68537,3.291761 -4.1358,0 -7.51197,-1.244959 -10.12849,-3.734883 -2.91193,-2.91194 -4.36791,-6.478011 -4.36791,-10.698213 0.0422,-4.726626 1.68806,-8.482607 4.93764,-11.26794 3.29175,-2.827535 7.27984,-4.241302 11.96428,-4.241302 3.24955,0 6.1404,0.717433 8.67252,2.152302 3.20735,1.814686 5.57064,4.389009 7.08993,7.72297 1.26605,2.70093 1.89908,5.781676 1.89908,9.242244 0,2.954139 -0.46421,6.836729 -1.39266,11.647765 -1.68809,9.706452 -2.53212,19.391826 -2.53212,29.056096 v 4.55782 c 0,9.95967 0.86514,17.66153 2.59543,23.10561 z" /></svg>
